<?xml version="1.0" standalone="no"?>
<!DOCTYPE svg PUBLIC "-//W3C//DTD SVG 20010904//EN"
 "http://www.w3.org/TR/2001/REC-SVG-20010904/DTD/svg10.dtd">
<svg version="1.0" xmlns="http://www.w3.org/2000/svg"
 width="1024.000000pt" height="1024.000000pt" viewBox="0 0 1024.000000 1024.000000"
 preserveAspectRatio="xMidYMid meet">
<metadata>
Created by potrace 1.16, written by Peter Selinger 2001-2019
</metadata>
<g transform="translate(0.000000,1024.000000) scale(0.100000,-0.100000)"
fill="#000000" stroke="none">
<path d="M7025 10014 c-182 -44 -305 -107 -424 -219 -138 -130 -241 -316 -276
-498 -80 -421 145 -787 524 -852 194 -34 397 23 578 162 117 89 207 203 273
346 141 307 104 644 -96 866 -70 78 -172 142 -281 177 -47 15 -258 28 -298 18z"/>
<path d="M4376 9229 c-211 -30 -382 -121 -537 -286 -163 -173 -301 -454 -384
-783 -173 -683 -502 -1269 -900 -1603 -16 -14 -28 -28 -25 -30 7 -8 211 73
307 121 44 23 127 72 184 110 291 195 495 431 768 884 74 123 161 262 193 309
156 230 311 312 498 264 149 -38 406 -195 560 -341 50 -48 92 -85 94 -83 10
10 36 370 36 486 -1 193 -24 467 -66 755 l-7 47 -81 35 c-231 99 -462 140
-640 115z"/>
<path d="M5364 8903 c22 -77 51 -253 87 -533 18 -132 18 -629 0 -745 -71 -481
-222 -817 -475 -1058 -84 -79 -155 -130 -293 -207 -327 -182 -543 -368 -697
-598 -188 -284 -311 -700 -341 -1153 -4 -52 -8 -107 -11 -124 -2 -16 -9 -203
-14 -415 -5 -215 -16 -436 -24 -500 -64 -511 -278 -1001 -622 -1427 -38 -47
-75 -93 -81 -102 -13 -17 -17 -15 117 -87 19 -10 37 -21 40 -24 5 -5 70 -41
145 -79 16 -9 32 -18 35 -21 8 -8 215 -110 224 -110 32 0 368 328 486 475 255
319 431 709 494 1095 8 52 22 140 31 195 123 753 347 1303 720 1768 87 109
272 300 506 522 176 168 268 296 359 503 310 701 98 1603 -593 2535 -76 101
-105 129 -93 90z"/>
<path d="M6050 8345 c0 -3 22 -49 49 -103 233 -465 345 -927 327 -1358 l-6
-151 83 -38 c327 -150 702 -261 1016 -300 202 -26 500 -17 676 20 366 76 636
255 836 552 146 218 240 459 304 777 25 125 45 337 31 324 -4 -3 -27 -50 -51
-103 -129 -286 -361 -575 -576 -718 -226 -150 -427 -205 -703 -194 -301 12
-582 111 -872 306 -219 147 -350 261 -783 681 -284 276 -331 320 -331 305z"/>
<path d="M5913 5495 c-147 -125 -349 -336 -460 -480 -93 -120 -106 -145 -78
-145 23 0 251 -75 383 -126 366 -142 611 -311 694 -481 33 -68 33 -69 33 -218
0 -139 -2 -156 -29 -235 -39 -115 -73 -181 -144 -275 -135 -180 -336 -338
-613 -482 -275 -143 -663 -279 -996 -348 -18 -4 -33 -11 -33 -17 0 -17 517 13
715 43 733 108 1250 297 1630 594 98 77 265 248 327 335 391 550 195 1095
-564 1569 -178 112 -380 210 -650 317 l-107 42 -108 -93z"/>
<path d="M7942 4047 c-10 -302 -102 -646 -249 -927 -230 -442 -573 -787 -1194
-1203 -449 -300 -909 -547 -1363 -731 -109 -44 -109 -44 -75 -54 79 -23 117
-32 174 -43 33 -6 78 -15 100 -20 38 -9 155 -31 255 -49 25 -4 92 -15 150 -24
58 -8 124 -18 147 -22 34 -5 62 1 165 41 560 213 969 466 1318 815 151 151
234 251 349 420 379 557 482 1187 290 1764 -23 69 -46 126 -53 126 -7 0 -12
-32 -14 -93z"/>
<path d="M7900 2062 c-243 -426 -647 -774 -1232 -1062 l-157 -78 42 -6 c23 -3
155 -9 292 -12 l250 -7 102 77 c331 249 590 587 706 921 37 107 71 247 65 266
-2 6 -33 -38 -68 -99z"/>
</g>
</svg>
